<svg xmlns="http://www.w3.org/2000/svg" viewBox="0 0 64 64" width="128px" height="128px"><radialGradient id="xW1rhakWxHfCsuNDi~7SWa" cx="32" cy="33" r="29.606" gradientUnits="userSpaceOnUse" spreadMethod="reflect"><stop offset="0" stop-color="#c5f1ff"/><stop offset=".35" stop-color="#cdf3ff"/><stop offset=".907" stop-color="#e4faff"/><stop offset="1" stop-color="#e9fbff"/></radialGradient><path fill="url(#xW1rhakWxHfCsuNDi~7SWa)" d="M10.5,60h41c2.485,0,4.5-2.015,4.5-4.5v0c0-2.485-2.015-4.5-4.5-4.5h-0.393 c-0.996,0-1.92-0.681-2.08-1.664C48.824,48.083,49.785,47,51,47l5.288,0c2.347,0,4.453-1.704,4.689-4.039 C61.247,40.282,59.127,38,56.5,38l-3.393,0c-0.996,0-1.92-0.681-2.08-1.664C50.824,35.083,51.785,34,53,34l5.241,0 c2.868,0,5.442-2.082,5.731-4.936C64.303,25.789,61.711,23,58.5,23l-12.33,0c-1.624,0-3.081-1.216-3.166-2.839 C42.914,18.431,44.29,17,46,17l2.241,0c2.868,0,5.442-2.082,5.731-4.936C54.303,8.789,51.711,6,48.5,6l-38,0C7.462,6,5,8.462,5,11.5 v0c0,3.038,2.462,5.5,5.5,5.5H14c1.105,0,2,0.895,2,2v0c0,1.105-0.895,2-2,2l-9.288,0c-2.347,0-4.453,1.704-4.689,4.038 C-0.248,27.718,1.873,30,4.5,30l8.33,0c1.624,0,3.081,1.216,3.166,2.839C16.086,34.569,14.71,36,13,36H7.712 c-2.347,0-4.453,1.704-4.689,4.038C2.753,42.718,4.873,45,7.5,45h6.393c0.996,0,1.92,0.681,2.08,1.664 C16.176,47.917,15.215,49,14,49l-3.5,0C7.462,49,5,51.462,5,54.5v0C5,57.538,7.462,60,10.5,60z"/><linearGradient id="xW1rhakWxHfCsuNDi~7SWb" x1="32.5" x2="32.5" y1="64.102" y2="22.102" gradientUnits="userSpaceOnUse" spreadMethod="reflect"><stop offset="0" stop-color="#155cde"/><stop offset=".278" stop-color="#1f7fe5"/><stop offset=".569" stop-color="#279ceb"/><stop offset=".82" stop-color="#2cafef"/><stop offset="1" stop-color="#2eb5f0"/></linearGradient><path fill="url(#xW1rhakWxHfCsuNDi~7SWb)" d="M57.667,19.058c-1.44,0.493-2.997,0.771-4.636,0.956c1.617-0.805,2.735-1.99,3.78-3.441 c0.598-0.83-0.329-1.915-1.25-1.469c-1.638,0.793-3.22,1.382-5.213,1.721C48.399,15.073,45.829,14,43,14 c-4.11,0-7.69,2.25-9.57,5.58C32.52,21.18,32,23.03,32,25c0,0.677,0.082,1.332,0.199,1.975c-8.839-0.263-16.248-4.827-20.463-10.568 C11.268,15.77,10.29,15.906,10,16.641C9.553,17.772,9,19,9,21c0,0.12,0,0.23,0.01,0.34c0.04,1.3,0.33,2.54,0.83,3.66 c0.94,2.17,2.64,3.94,4.77,4.98C14.41,29.99,14.21,30,14,30c-2,0-2.658-0.685-3.743-0.967c-0.683-0.178-1.35,0.392-1.247,1.09 c0.328,2.221,1.484,4.559,3.029,6.047c1.66,1.62,3.88,2.66,6.35,2.81C17.07,39.63,15.58,40,14,40h-1c-0.756,0-1.227,0.8-0.886,1.474 c1.677,3.317,5.561,5.53,9.722,5.516C17.826,49.518,13.091,51,8,51H7c-0.552,0-1,0.448-1,1c0,0.458,0.314,0.828,0.734,0.946 l-0.002,0.017c0,0,7.53,3.037,16.268,3.037c16.93,0,30.69-13.57,30.99-30.43C54,25.38,54,25.19,54,25s0-0.38-0.01-0.57 c-0.014-0.275-0.048-0.545-0.082-0.815c1.851-0.589,3.499-1.558,4.811-2.926C59.442,19.936,58.655,18.72,57.667,19.058z"/></svg>